<svg xmlns="http://www.w3.org/2000/svg" width="512" height="512" viewBox="0 0 512 512" version="1.1">
	<path d="M 10.899 2.784 C 6.584 5.038, 5.038 6.584, 2.784 10.899 L 0 16.228 -0 256 L -0 495.772 2.784 501.101 C 5.038 505.416, 6.584 506.962, 10.899 509.216 L 16.228 512 256 512 L 495.772 512 501.087 509.223 C 505.481 506.928, 506.962 505.412, 509.637 500.473 L 512.871 494.500 512.936 254.583 C 512.971 122.629, 512.732 14.935, 512.404 15.263 C 512.076 15.591, 510.598 13.544, 509.119 10.714 C 506.969 6.597, 505.366 5.012, 501.101 2.784 L 495.772 0 256 -0 L 16.228 -0 10.899 2.784 M 0.492 256 C 0.492 388.275, 0.608 442.387, 0.750 376.250 C 0.892 310.112, 0.892 201.887, 0.750 135.750 C 0.608 69.612, 0.492 123.725, 0.492 256 M 279.226 114.439 C 276.762 117.572, 276.456 119.282, 274.562 140.500 C 269.344 198.925, 267.827 251.878, 269.957 301.226 C 270.920 323.532, 270.387 328.425, 266.875 329.540 C 265.741 329.900, 254.281 329.866, 241.408 329.466 L 218.004 328.737 216.103 333.118 C 213.430 339.277, 211.639 350.921, 212.867 354.151 C 214.120 357.447, 216.298 357.729, 247.340 358.622 L 271.179 359.308 272.575 362.404 C 273.342 364.107, 274.622 371.707, 275.419 379.294 C 277.245 396.680, 278.588 399.500, 285.043 399.500 C 288.874 399.500, 289.649 399.134, 290.773 396.789 C 291.885 394.467, 291.699 391.978, 289.475 379.454 C 287.970 370.979, 287.153 363.581, 287.532 361.856 C 288.217 358.737, 291.083 357, 295.546 357 C 298.897 357, 299.610 353.392, 298.188 343.636 C 296.607 332.787, 294.616 329.589, 289.196 329.192 C 285.671 328.934, 284.738 328.394, 283.422 325.850 C 280.432 320.067, 279.566 304.612, 279.538 256.500 C 279.515 218.031, 279.837 206.414, 281.312 192.500 C 283.723 169.753, 286.510 149.508, 289.600 132.293 C 291.811 119.973, 291.973 117.714, 290.818 115.293 C 289.724 113.001, 288.745 112.446, 285.356 112.198 C 281.925 111.947, 280.888 112.326, 279.226 114.439 M 331.375 117.713 C 325.498 122.655, 323.237 133.018, 325.365 145.255 C 326.099 149.478, 327.231 153.574, 327.881 154.356 C 328.541 155.151, 332.686 156.292, 337.281 156.943 C 341.801 157.583, 346.324 158.349, 347.332 158.646 C 350.080 159.457, 356.801 151.854, 361.453 142.671 C 366.542 132.627, 366.197 132.009, 354.343 129.930 C 343.048 127.949, 342.701 127.730, 343.488 123.069 C 344.246 118.582, 342.804 117.024, 337.289 116.373 C 334.610 116.057, 332.877 116.449, 331.375 117.713 M 224.064 121.880 C 222.527 124.752, 222.711 127.786, 225.497 145.566 C 226.870 154.330, 228.723 168.025, 229.615 176 C 230.507 183.975, 231.836 191.963, 232.567 193.750 L 233.898 197 245.474 197 L 257.050 197 258.232 194.250 C 259.862 190.457, 259.850 173.112, 258.215 170.250 C 257.095 168.290, 256.116 168, 250.620 168 C 240.813 168, 240.793 167.958, 238.489 143.064 C 236.661 123.316, 235.590 120.661, 229.265 120.196 C 225.970 119.953, 224.912 120.296, 224.064 121.880 M 125 124.889 C 121.018 125.987, 121.142 130.587, 125.301 136.043 C 129.630 141.722, 132.207 146.713, 131.810 148.653 C 131.591 149.725, 126.394 151.452, 114.145 154.524 C 104.600 156.918, 96.558 159.108, 96.275 159.392 C 94.169 161.498, 106.035 176.387, 113.495 180.997 L 116.905 183.104 131.554 179.818 L 146.202 176.532 147.998 178.749 C 151.355 182.895, 151.934 217.661, 148.761 224.624 C 148.124 226.024, 146.377 227.361, 144.583 227.822 C 141.993 228.489, 141.447 229.165, 141.168 232.054 C 140.739 236.506, 142.748 246.864, 144.601 249.750 C 147.226 253.838, 155.786 252.247, 158.404 247.185 C 160.640 242.861, 163.764 226.142, 164.972 212.030 C 165.559 205.172, 166.406 199.194, 166.853 198.747 C 167.300 198.300, 168.342 198.194, 169.169 198.511 C 171.877 199.550, 182.911 217.512, 190.145 232.656 C 194.044 240.820, 197.927 248.287, 198.772 249.250 C 201.001 251.786, 208.575 251.662, 209.965 249.066 C 211.363 246.454, 211.177 231.350, 209.694 227 C 208.734 224.187, 207.911 223.434, 205.500 223.166 C 201.278 222.697, 199.884 221.152, 192.363 208.603 C 188.703 202.496, 183.186 194.197, 180.104 190.161 C 169.469 176.234, 168.738 175.124, 169.276 173.724 C 169.648 172.755, 173.181 171.925, 180.658 171.050 C 197.582 169.070, 197.446 169.125, 197.811 164.129 C 198.197 158.839, 194.703 147.989, 191.318 143.967 C 188.247 140.317, 187.662 140.306, 168.084 143.519 L 152.737 146.037 149.550 143.606 C 147.797 142.269, 144.194 138.221, 141.543 134.610 C 138.312 130.210, 135.345 127.377, 132.546 126.022 C 130.248 124.910, 128.173 124.045, 127.934 124.100 C 127.695 124.155, 126.375 124.510, 125 124.889 M 404.479 131.858 C 399.512 134.130, 393.507 140.686, 380.994 157.500 C 375.672 164.650, 370.166 171.115, 368.758 171.866 C 366.747 172.939, 364.941 173.011, 360.348 172.200 C 355.700 171.379, 354.054 171.452, 352.326 172.557 C 349.842 174.145, 344.263 184.902, 342.985 190.565 C 341.770 195.952, 343.015 197.612, 348.852 198.386 C 355.335 199.246, 355.616 200.611, 351.935 213.353 C 350.323 218.934, 348.355 226.895, 347.562 231.045 C 340.594 267.504, 349.379 305.703, 373.461 343.661 C 380.075 354.085, 380.604 357.515, 375.750 358.503 C 365.004 360.690, 364.715 360.859, 365.322 364.598 C 366.597 372.453, 379.106 387, 384.585 387 C 389.032 387, 440 373.579, 440 372.408 C 440 368.915, 426.579 355.950, 418.790 351.920 C 414.363 349.629, 412.243 349.560, 405.063 351.471 C 399.890 352.847, 399.432 352.810, 395.640 350.709 C 388.363 346.677, 372.899 323.288, 364.605 303.770 C 362.564 298.968, 359.709 290.643, 358.259 285.270 C 355.835 276.288, 355.622 273.926, 355.619 256 C 355.617 237.896, 355.811 235.784, 358.335 226.500 C 361.474 214.951, 366.258 204.468, 369.076 202.960 C 370.373 202.265, 372.744 202.226, 376.138 202.843 C 381.100 203.745, 381.355 203.674, 385.022 200.361 C 389.694 196.140, 397 185.095, 397 182.252 C 397 180.507, 396.033 179.927, 391.399 178.890 C 388.318 178.201, 385.554 177.002, 385.257 176.227 C 384 172.951, 390.623 163.806, 406.714 146.601 C 414.712 138.049, 417.248 133.785, 415.377 132.032 C 413.362 130.144, 408.399 130.065, 404.479 131.858 M 313.458 168.424 C 309.706 174.150, 306.775 189.523, 308.821 192.745 C 309.256 193.430, 312.512 194.286, 316.056 194.648 C 319.600 195.009, 322.831 195.799, 323.235 196.403 C 325.001 199.040, 322.491 215.101, 319.352 221.250 C 318.028 223.844, 317.561 224, 311.135 224 C 304.690 224, 304.249 224.149, 302.996 226.750 C 302.267 228.262, 301.467 233.887, 301.219 239.248 C 300.845 247.326, 301.064 249.449, 302.497 251.636 C 303.810 253.640, 304.433 257.799, 305.081 268.888 C 307.049 302.563, 312.316 329.433, 323.015 360.366 C 329.846 380.118, 333.976 388.960, 337.919 392.278 C 341.456 395.254, 342.589 395.487, 346.435 394.025 C 350.425 392.508, 349.732 389.085, 342.075 372.500 C 331.038 348.596, 324.174 328.730, 319.933 308.420 C 318.006 299.192, 317.979 294, 319.859 294 C 321.205 294, 322.778 298.323, 325.575 309.712 C 331.980 335.788, 347.046 371.354, 354.420 377.807 C 358.522 381.396, 362.480 381.808, 364.338 378.839 C 365.132 377.571, 364.659 375.798, 362.338 371.339 C 343.357 334.864, 339.097 324.400, 331.059 294.500 C 327.908 282.779, 322.731 272.323, 319.040 270.225 C 312.872 266.718, 312.470 257.159, 318.256 251.540 C 322.760 247.165, 327.018 236.042, 331.903 215.888 C 334.087 206.875, 337.941 193.532, 340.466 186.237 C 343.953 176.162, 344.817 172.527, 344.061 171.114 C 343.042 169.211, 337.250 167.987, 321.856 166.421 C 315.426 165.767, 315.157 165.831, 313.458 168.424 M 228.072 223.312 C 227.588 224.583, 227.170 240.772, 227.143 259.287 C 227.102 287.013, 227.343 293.200, 228.507 294.364 C 229.532 295.389, 232.930 295.819, 240.877 295.928 C 254.875 296.119, 255 295.989, 255 281.212 C 255 267.634, 254.625 267, 246.587 267 C 241.911 267, 239.884 266.566, 238.872 265.348 C 237.866 264.136, 237.353 258.706, 236.947 244.974 C 236.493 229.596, 236.087 225.782, 234.674 223.626 C 232.533 220.357, 229.254 220.201, 228.072 223.312 M 144.104 264.805 C 143.566 265.810, 142.149 270.653, 140.954 275.566 C 133.947 304.376, 116.910 329.349, 84.500 358.317 C 75.002 366.806, 71.131 371.572, 72.612 372.952 C 75.946 376.058, 130.627 388.765, 161.448 393.595 C 177.058 396.042, 177.449 396.056, 179.886 394.236 C 184.108 391.083, 185.905 387.871, 190.102 375.976 C 199.861 348.314, 205.464 325.079, 208.975 297.712 C 211.301 279.577, 211.580 268.112, 209.750 265.810 C 208.680 264.464, 203.925 264.146, 176.791 263.608 C 146.746 263.011, 145.031 263.074, 144.104 264.805 M 148.298 290.676 C 143.646 297.437, 140.602 308.018, 142.901 309.439 C 143.397 309.745, 147.196 310.523, 151.343 311.168 C 160.253 312.553, 161.090 312.134, 164.649 304.500 C 166.905 299.661, 167.881 290.631, 166.250 289.681 C 165.838 289.440, 162.067 288.930, 157.871 288.548 C 150.298 287.857, 150.227 287.873, 148.298 290.676 M 178.345 296.559 C 175.297 303.216, 173.991 313.692, 176.113 314.459 C 176.876 314.735, 180.761 315.338, 184.746 315.799 C 191.465 316.577, 192.140 316.480, 194.030 314.468 C 196.721 311.603, 199.483 298.402, 198.134 294.852 C 197.312 292.691, 196.343 292.199, 191.831 291.658 C 181.220 290.383, 181.162 290.405, 178.345 296.559 M 120.896 338.897 C 113.919 346.157, 111.228 351.116, 113.323 352.851 C 113.971 353.387, 118.746 354.822, 123.936 356.040 C 133.120 358.195, 133.462 358.206, 136.721 356.451 C 141.648 353.798, 148.180 343.579, 147.799 339.121 L 147.500 335.617 139.500 333.840 C 135.100 332.862, 130.606 332.048, 129.513 332.031 C 128.337 332.013, 124.818 334.817, 120.896 338.897 M 162.745 342.250 C 158.917 346.320, 153.743 357.162, 154.175 360.209 C 154.471 362.296, 155.429 362.655, 164.942 364.240 C 174.471 365.827, 175.593 365.842, 177.786 364.405 C 182.747 361.154, 187.979 344.828, 184.856 342.342 C 183.733 341.448, 170.552 339, 166.860 339 C 166.278 339, 164.427 340.462, 162.745 342.250 M 104.433 430.314 C 104.156 431.037, 104.057 436.550, 104.214 442.564 L 104.500 453.500 108.250 453.810 L 112 454.121 112 449.560 C 112 445.712, 112.303 445, 113.943 445 C 115.513 445, 115.944 445.814, 116.193 449.250 C 116.491 453.375, 116.610 453.509, 120.250 453.810 L 124 454.121 124 441.500 L 124 428.879 120.250 429.190 C 116.610 429.491, 116.491 429.625, 116.193 433.750 C 115.944 437.186, 115.513 438, 113.943 438 C 112.307 438, 112 437.289, 112 433.500 C 112 429.016, 111.987 429, 108.469 429 C 106.474 429, 104.718 429.572, 104.433 430.314 M 125.667 429.667 C 125.300 430.033, 125 431.608, 125 433.167 C 125 435.522, 125.422 436, 127.500 436 C 129.983 436, 130 436.063, 130 445.060 L 130 454.121 133.750 453.810 L 137.500 453.500 137.789 444.750 L 138.078 436 142.539 436 L 147 436 147 445.060 L 147 454.121 150.750 453.810 L 154.500 453.500 154.789 444.750 C 155.051 436.823, 155.262 436, 157.039 436 C 158.613 436, 159 435.310, 159 432.500 L 159 429 142.667 429 C 133.683 429, 126.033 429.300, 125.667 429.667 M 160.433 430.314 C 160.156 431.037, 160.057 436.550, 160.214 442.564 L 160.500 453.500 164.250 453.810 C 167.793 454.104, 168 453.961, 168 451.219 C 168 448.704, 168.529 448.158, 171.964 447.129 C 174.144 446.476, 176.619 444.954, 177.464 443.748 C 179.525 440.806, 179.406 435.723, 177.214 433.016 C 174.515 429.683, 161.480 427.585, 160.433 430.314 M 182.635 431.073 C 179.010 433.924, 179.284 437.201, 183.540 441.913 C 187.286 446.059, 186.879 447.689, 182.381 446.559 C 180.002 445.962, 179.891 446.122, 180.188 449.715 L 180.500 453.500 185.699 453.801 C 189.866 454.041, 191.306 453.694, 192.949 452.051 C 196.105 448.895, 195.688 443.534, 192 439.846 C 188.454 436.300, 188.376 436, 191 436 C 192.619 436, 193 435.333, 193 432.500 C 193 429.104, 192.885 429, 189.135 429 C 186.739 429, 184.268 429.788, 182.635 431.073 M 210.740 440.762 C 208.123 447.218, 205.985 452.837, 205.990 453.250 C 205.996 453.663, 207.253 454, 208.783 454 C 211.406 454, 211.862 453.280, 216.687 441.500 L 221.807 429 218.653 429.012 C 215.567 429.024, 215.398 429.275, 210.740 440.762 M 226.210 441.560 L 221.078 454.121 224.241 453.810 C 227.265 453.514, 227.613 452.996, 232.171 442 C 234.793 435.675, 236.952 430.163, 236.969 429.750 C 236.986 429.337, 235.727 429, 234.171 429 C 231.488 429, 231.077 429.649, 226.210 441.560 M 238.482 430.187 C 238.177 430.980, 238.057 436.550, 238.214 442.564 L 238.500 453.500 244.214 453.386 C 254.428 453.183, 259 449.538, 259 441.597 C 259 433.718, 255.466 430.605, 245.204 429.444 C 240.288 428.887, 238.923 429.038, 238.482 430.187 M 261.427 430.329 C 261.153 431.044, 261.057 436.550, 261.214 442.564 L 261.500 453.500 268.500 453.500 L 275.500 453.500 275.813 450.250 C 276.115 447.120, 275.992 447, 272.480 447 C 268.197 447, 268.071 444.687, 272.327 444.184 C 274.545 443.921, 275 443.368, 275 440.934 C 275 438.341, 274.652 438, 272 438 C 267.959 438, 268.164 436.207, 272.250 435.813 C 274.833 435.564, 275.571 434.995, 275.847 433.041 C 276.100 431.250, 277.460 433.698, 280.847 442.041 C 285.326 453.073, 285.612 453.500, 288.500 453.500 C 291.376 453.500, 291.674 453.065, 295.707 443 C 298.021 437.225, 299.934 433.288, 299.957 434.250 C 299.986 435.439, 300.802 436, 302.500 436 C 304.983 436, 305 436.063, 305 445.060 L 305 454.121 308.750 453.810 L 312.500 453.500 312.789 444.750 C 313.051 436.823, 313.262 436, 315.039 436 C 316.613 436, 317 435.310, 317 432.500 L 317 429 304.981 429 L 292.961 429 290.601 434.250 C 288.602 438.700, 288.125 439.195, 287.473 437.500 C 287.051 436.400, 286.131 434.067, 285.430 432.315 L 284.156 429.129 273.041 429.079 C 264.808 429.042, 261.797 429.366, 261.427 430.329 M 325.418 429.969 C 324.274 430.432, 322.136 432.238, 320.668 433.982 C 317.681 437.532, 317.091 443.734, 319.353 447.810 C 322.343 453.199, 330.350 455.565, 335.970 452.721 C 339.413 450.978, 343.001 445.302, 342.996 441.602 C 342.986 433.067, 333.416 426.733, 325.418 429.969 M 355 441.500 L 355 454 359 454 L 363 454 363 441.500 L 363 429 359 429 L 355 429 355 441.500 M 372.500 429.900 C 371.400 430.385, 369.375 431.992, 368 433.471 C 365.974 435.651, 365.500 437.185, 365.500 441.561 C 365.500 446.288, 365.894 447.355, 368.657 450.119 C 372.404 453.865, 379.893 455.168, 384.327 452.845 L 386.961 451.465 385.108 448.418 C 383.482 445.744, 382.811 445.424, 379.614 445.797 C 375.398 446.289, 373 444.732, 373 441.500 C 373 438.285, 375.399 436.711, 379.560 437.197 C 382.708 437.564, 383.333 437.257, 384.659 434.693 C 385.692 432.695, 385.846 431.446, 385.144 430.744 C 383.775 429.375, 375.016 428.791, 372.500 429.900 M 388 439.045 C 388 448.378, 388.174 449.265, 390.455 451.545 C 393.866 454.957, 400.750 454.979, 404.687 451.593 C 407.398 449.261, 407.486 448.878, 407.493 439.343 L 407.500 429.500 403.790 429.192 L 400.080 428.884 399.790 437.692 C 399.525 445.737, 399.327 446.500, 397.500 446.500 C 395.423 446.500, 395.329 445.972, 395.073 432.750 C 395.003 429.145, 394.865 429, 391.500 429 L 388 429 388 439.045 M 216.624 432.539 C 215.659 435.053, 215.943 435.702, 217.122 433.675 C 217.706 432.671, 217.973 431.639, 217.715 431.382 C 217.458 431.124, 216.966 431.645, 216.624 432.539 M 108.360 441.500 C 108.360 447, 108.529 449.363, 108.735 446.750 L 109.110 442 114.497 442 L 119.885 442 120.268 446.250 C 120.648 450.467, 120.652 450.461, 120.825 445.436 L 121 440.372 115.060 440.802 L 109.119 441.232 108.740 436.366 C 108.531 433.690, 108.360 436, 108.360 441.500 M 130.212 432.713 C 132.891 433.120, 132.928 433.233, 133.256 441.813 L 133.589 450.500 133.794 441.816 C 133.999 433.171, 134.012 433.131, 136.750 432.716 C 138.262 432.487, 136.800 432.300, 133.500 432.300 C 130.200 432.300, 128.720 432.485, 130.212 432.713 M 147.213 432.713 C 149.909 433.123, 149.929 433.187, 150.256 442.313 L 150.585 451.500 150.792 442.316 L 151 433.133 153.750 432.716 C 155.262 432.487, 153.800 432.300, 150.500 432.300 C 147.200 432.300, 145.721 432.486, 147.213 432.713 M 164.160 441.750 C 164.248 447.113, 164.502 450.038, 164.723 448.250 C 165.067 445.481, 165.528 445, 167.841 445 C 172.079 445, 175 442.407, 175 438.643 C 175 435.110, 173.481 432.964, 171.050 433.063 C 170.099 433.102, 170.370 433.476, 171.750 434.031 C 173.482 434.727, 174 435.741, 174 438.433 C 174 442.279, 172.012 444, 167.566 444 C 165.126 444, 165 443.732, 165 438.570 C 165 433.733, 165.246 433.092, 167.250 432.706 C 169.179 432.334, 169.108 432.253, 166.750 432.136 L 164 432 164.160 441.750 M 187.813 432.683 C 188.534 432.972, 189.397 432.936, 189.729 432.604 C 190.061 432.272, 189.471 432.036, 188.417 432.079 C 187.252 432.127, 187.015 432.364, 187.813 432.683 M 242 441.500 C 242 450.999, 242 451, 244.532 451 C 254.182 451, 259.295 441.295, 252.975 434.975 C 251.889 433.889, 250.213 433.029, 249.250 433.063 C 247.851 433.114, 247.930 433.300, 249.643 433.992 C 252.401 435.105, 255 438.828, 255 441.667 C 255 445.107, 250.996 448.989, 246.750 449.665 L 243 450.262 243 441.700 C 243 433.617, 243.126 433.115, 245.250 432.706 C 247.179 432.334, 247.108 432.253, 244.750 432.136 L 242 432 242 441.500 M 265 441.500 L 265 451 269.250 450.832 L 273.500 450.664 269.750 450.272 C 266.129 449.893, 266 449.746, 266 446 C 266 442.254, 266.129 442.107, 269.750 441.728 L 273.500 441.336 269.750 441.168 C 266.080 441.004, 266 440.916, 266 437.060 C 266 433.244, 266.118 433.108, 269.750 432.728 L 273.500 432.336 269.250 432.168 L 265 432 265 441.500 M 281 432.307 C 281 433.707, 287.692 449.241, 288.344 449.354 C 289.212 449.504, 296.274 432.941, 295.620 432.287 C 295.420 432.087, 293.786 435.568, 291.990 440.024 C 290.194 444.479, 288.397 447.759, 287.997 447.312 C 287.597 446.866, 286.044 443.238, 284.547 439.250 C 282.279 433.208, 281 430.705, 281 432.307 M 305.213 432.713 C 307.909 433.123, 307.929 433.187, 308.256 442.313 L 308.585 451.500 308.792 442.316 L 309 433.133 311.750 432.716 C 313.262 432.487, 311.800 432.300, 308.500 432.300 C 305.200 432.300, 303.721 432.486, 305.213 432.713 M 374.357 432.992 C 368.906 435.191, 367.113 443.879, 371.298 447.810 C 372.562 448.998, 375.150 450.200, 377.048 450.481 L 380.500 450.993 377 449.946 C 372.475 448.592, 370 445.606, 370 441.500 C 370 436.534, 372.944 433.545, 377.835 433.545 C 380.061 433.545, 381.346 433.205, 380.691 432.788 C 379.178 431.826, 377.079 431.893, 374.357 432.992 M 403.199 439.179 C 402.982 447.545, 401.689 450, 397.500 450 C 396.204 450, 394.436 449.293, 393.571 448.429 C 392.707 447.564, 392 447.349, 392 447.950 C 392 449.666, 396.590 451.320, 399.397 450.615 C 403.102 449.685, 404.130 446.875, 403.742 438.734 L 403.397 431.500 403.199 439.179 M 120.158 435 C 120.158 436.375, 120.385 436.938, 120.662 436.250 C 120.940 435.563, 120.940 434.438, 120.662 433.750 C 120.385 433.063, 120.158 433.625, 120.158 435 M 184.667 433.667 C 183.252 435.082, 184.134 437.405, 187.500 441.132 C 191.269 445.304, 191.701 446.814, 189.750 449.002 C 188.687 450.194, 188.761 450.206, 190.250 449.079 C 192.811 447.142, 192.426 445.477, 188.383 441.003 C 185.913 438.268, 184.933 436.366, 185.290 435 C 185.848 432.865, 185.727 432.606, 184.667 433.667 M 230.133 438.133 C 228.949 440.983, 228.145 443.479, 228.347 443.680 C 228.549 443.882, 229.683 441.716, 230.867 438.867 C 232.051 436.017, 232.855 433.521, 232.653 433.320 C 232.451 433.118, 231.317 435.284, 230.133 438.133 M 324.201 435.028 C 319.665 439.253, 320.638 446.727, 326.091 449.547 C 330.212 451.678, 332.583 451.344, 336.184 448.127 C 338.677 445.899, 339.400 444.445, 339.400 441.654 C 339.400 437.760, 335.907 432.988, 333.076 433.015 C 332.115 433.024, 332.476 433.523, 334 434.294 C 337.193 435.909, 339.246 440.171, 338.419 443.467 C 337.610 446.691, 333.491 450, 330.288 450 C 326.994 450, 322 444.879, 322 441.500 C 322 439.900, 323.161 437.685, 324.923 435.923 C 328.204 432.642, 327.585 431.875, 324.201 435.028 M 391.328 439.500 C 391.333 443.350, 391.513 444.802, 391.730 442.728 C 391.946 440.653, 391.943 437.503, 391.722 435.728 C 391.501 433.952, 391.324 435.650, 391.328 439.500 M 168 438.500 C 168 440.189, 168.458 441.014, 169.250 440.750 C 169.938 440.521, 170.500 439.508, 170.500 438.500 C 170.500 437.492, 169.938 436.479, 169.250 436.250 C 168.458 435.986, 168 436.811, 168 438.500 M 214.624 437.539 C 213.659 440.053, 213.943 440.702, 215.122 438.675 C 215.706 437.671, 215.973 436.639, 215.715 436.382 C 215.458 436.124, 214.966 436.645, 214.624 437.539 M 246 441.531 C 246 444.539, 246.450 447, 247 447 C 248.448 447, 252 443.228, 252 441.691 C 252 439.914, 249.881 437.412, 247.750 436.671 C 246.223 436.140, 246 436.758, 246 441.531 M 327.427 437.765 C 324.476 439.786, 325.411 445.351, 328.852 446.251 C 333.258 447.403, 336.968 441.368, 333.800 438.200 C 332.465 436.865, 329.079 436.634, 327.427 437.765 M 197 441 C 197 443.833, 197.222 444, 201 444 C 204.778 444, 205 443.833, 205 441 C 205 438.167, 204.778 438, 201 438 C 197.222 438, 197 438.167, 197 441 M 199.813 440.683 C 200.534 440.972, 201.397 440.936, 201.729 440.604 C 202.061 440.272, 201.471 440.036, 200.417 440.079 C 199.252 440.127, 199.015 440.364, 199.813 440.683 M 211.133 446.133 C 209.949 448.983, 209.145 451.479, 209.347 451.680 C 209.549 451.882, 210.683 449.716, 211.867 446.867 C 213.051 444.017, 213.855 441.521, 213.653 441.320 C 213.451 441.118, 212.317 443.284, 211.133 446.133 M 226.624 446.539 C 225.659 449.053, 225.943 449.702, 227.122 447.675 C 227.706 446.671, 227.973 445.639, 227.715 445.382 C 227.458 445.124, 226.966 445.645, 226.624 446.539 M 347.250 447.788 C 345.497 448.062, 345 448.799, 345 451.130 C 345 453.974, 345.183 454.106, 348.750 453.810 C 351.955 453.545, 352.544 453.120, 352.804 450.881 C 353.130 448.066, 351.453 447.132, 347.250 447.788 M 197 451.060 C 197 453.985, 197.166 454.107, 200.750 453.810 C 204.006 453.541, 204.542 453.138, 204.816 450.750 C 205.116 448.149, 204.913 448, 201.066 448 C 197.197 448, 197 448.148, 197 451.060 M 184.750 450.662 C 185.438 450.940, 186.563 450.940, 187.250 450.662 C 187.938 450.385, 187.375 450.158, 186 450.158 C 184.625 450.158, 184.063 450.385, 184.750 450.662 M 199.813 450.683 C 200.534 450.972, 201.397 450.936, 201.729 450.604 C 202.061 450.272, 201.471 450.036, 200.417 450.079 C 199.252 450.127, 199.015 450.364, 199.813 450.683 M 347.813 450.683 C 348.534 450.972, 349.397 450.936, 349.729 450.604 C 350.061 450.272, 349.471 450.036, 348.417 450.079 C 347.252 450.127, 347.015 450.364, 347.813 450.683" stroke="none" fill="black" fill-rule="evenodd"/>
</svg>