<svg xmlns="http://www.w3.org/2000/svg" width="512" height="512" viewBox="0 0 512 512" version="1.1">
	<path d="M 0 256.002 L 0 512.004 256.250 511.752 L 512.500 511.500 512.752 255.750 L 513.004 0 256.502 0 L 0 0 0 256.002 M 0.492 256.500 C 0.492 397.300, 0.608 454.751, 0.750 384.170 C 0.892 313.588, 0.892 198.388, 0.750 128.170 C 0.608 57.951, 0.492 115.700, 0.492 256.500 M 75.765 153.970 C 73.856 155.472, 73.145 157.140, 72.776 160.980 C 71.895 170.151, 72.879 169.871, 40.296 170.207 L 11.824 170.500 9.412 173.306 C 6.217 177.022, 6.048 184.520, 9.073 188.365 L 11.145 191 36.138 191 C 60.460 191, 65 191.506, 65 194.215 C 65 196.355, 33.640 227.167, 29.500 229.094 C 26.952 230.280, 23.204 230.964, 19.173 230.978 C 13.528 230.998, 12.531 231.315, 9.923 233.923 C 7.453 236.393, 7 237.640, 7 241.969 C 7 246.074, 7.487 247.578, 9.455 249.545 C 11.774 251.865, 12.531 251.999, 23.205 251.978 C 39.349 251.947, 39.661 251.761, 61.961 228.922 C 77.890 212.608, 80.922 209.936, 83.500 209.937 C 86.075 209.938, 89.131 212.628, 105.091 228.947 C 127.255 251.609, 127.812 251.946, 143.076 251.978 C 152.852 251.998, 153.816 251.825, 155.826 249.686 C 157.521 247.881, 158 246.144, 158 241.796 C 158 233.585, 156.305 231.960, 146.763 231.026 C 141.431 230.504, 137.963 229.557, 135.270 227.889 C 130.286 224.802, 102 195.799, 102 193.775 C 102 191.327, 105.057 191.028, 130.250 191.014 C 152.657 191.001, 154.113 190.887, 156 189 C 157.508 187.492, 158 185.667, 158 181.582 C 158 170.055, 157.841 170, 124.622 170 L 98.145 170 96.073 167.365 C 94.778 165.720, 94 163.262, 94 160.820 C 94 154.878, 90.633 152, 83.680 152 C 79.811 152, 77.556 152.561, 75.765 153.970 M 287.789 153.363 C 286.848 154.078, 285.611 155.893, 285.039 157.397 C 284.355 159.197, 284 184.846, 284 232.493 L 284 304.855 281.365 306.927 C 278.785 308.957, 277.763 309, 231.865 309 C 186.781 309, 184.926 309.074, 183.056 310.944 C 178.638 315.362, 179.834 326.091, 185.037 328.724 C 186.896 329.665, 198.791 329.974, 233.527 329.985 C 272.732 329.998, 279.871 330.222, 281.689 331.495 C 283.609 332.840, 283.857 334.099, 284.161 344.083 C 284.489 354.813, 284.592 355.257, 287.306 357.589 C 291.309 361.029, 299.083 361.007, 302.545 357.545 C 304.821 355.270, 305 354.369, 305 345.180 C 305 336.668, 305.292 334.898, 307.073 332.635 C 308.976 330.215, 309.746 330, 316.496 330 C 322.945 330, 324.224 329.682, 326.923 327.411 C 329.701 325.074, 330 324.264, 330 319.085 C 330 310.834, 327.838 309, 318.109 309 C 311.415 309, 310.617 308.771, 307.923 306.077 L 305 303.154 305 229.650 L 305 156.145 302.365 154.073 C 299.299 151.661, 290.588 151.237, 287.789 153.363 M 356.750 153.572 C 351.517 156.411, 354.034 165.090, 362.301 172.710 C 370.365 180.143, 371.451 180.453, 390.713 180.829 L 407.927 181.164 410.463 178.628 C 413.844 175.247, 414.093 166.659, 410.927 162.635 C 408.868 160.016, 408.770 160, 395.077 160 C 380.373 160, 375.503 159.032, 374.697 155.949 C 373.687 152.088, 362.272 150.576, 356.750 153.572 M 454.455 154.455 C 452.089 156.820, 452 157.403, 452 170.500 C 452 183.597, 451.911 184.180, 449.545 186.545 C 447.227 188.864, 446.459 189, 435.720 189 C 425.127 189, 424.200 189.158, 422.174 191.314 C 420.431 193.170, 420 194.842, 420 199.742 C 420 205.155, 420.302 206.092, 422.635 207.927 C 424.935 209.737, 426.657 210, 436.180 210 C 446.431 210, 447.239 210.148, 449.545 212.455 L 452 214.909 452 274.366 L 452 333.822 448.923 336.411 C 446.024 338.851, 445.216 339, 434.923 339 C 421.254 339, 420 339.844, 420 349.045 C 420 354.131, 420.390 355.481, 422.455 357.545 L 424.909 360 462.031 360 L 499.154 360 502.077 357.077 C 504.519 354.635, 505 353.341, 505 349.212 C 505 345.726, 504.389 343.493, 502.927 341.635 C 500.924 339.088, 500.505 339, 490.378 339 C 479.504 339, 474.884 337.747, 473.621 334.455 C 473.280 333.565, 473 306.303, 473 273.873 L 473 214.909 475.455 212.455 C 477.733 210.176, 478.625 210, 487.907 210 C 498.874 210, 502.211 209.028, 503.890 205.343 C 506.278 200.100, 504.312 191.101, 500.455 189.621 C 499.565 189.280, 494.198 189, 488.529 189 C 473.491 189, 473.636 189.173, 473 170.533 C 472.516 156.358, 472.419 155.820, 470 153.963 C 466.135 150.997, 457.644 151.265, 454.455 154.455 M 210.174 160.314 C 208.069 162.555, 208 163.376, 208 186.159 C 208 208.811, 208.079 209.761, 210.105 211.595 C 212.046 213.352, 213.995 213.500, 235.192 213.500 L 258.173 213.500 260.587 210.694 C 264.525 206.116, 263.192 195.439, 258.455 193.621 C 257.565 193.280, 251.723 193, 245.474 193 C 234.959 193, 233.906 192.823, 231.354 190.628 C 228.466 188.144, 228.313 186.997, 228.047 165.789 C 227.977 160.267, 225.048 158, 217.986 158 C 213.386 158, 211.948 158.426, 210.174 160.314 M 356.635 191.073 C 354.282 192.923, 354 193.826, 354 199.500 C 354 205.174, 354.282 206.077, 356.635 207.927 C 359.014 209.799, 360.622 210, 373.180 210 C 386.616 210, 387.175 210.084, 389.545 212.455 C 391.614 214.523, 392 215.866, 392 221 C 392 226.134, 391.614 227.477, 389.545 229.545 C 387.172 231.919, 386.627 232, 373 232 C 359.373 232, 358.828 232.081, 356.455 234.455 C 354.359 236.550, 354.005 237.830, 354.032 243.205 C 354.065 249.843, 355.162 252.282, 358.602 253.374 C 362.830 254.716, 363 256.791, 363 307.093 L 363 355.091 365.455 357.545 C 367.454 359.545, 368.890 359.994, 373.205 359.968 C 383.898 359.904, 384 359.538, 384 321.288 C 384 294.086, 384.227 289.121, 385.557 287.223 C 386.413 286, 387.933 285, 388.934 285 C 393.195 285, 393.476 286.844, 394 318.241 L 394.500 348.180 396.861 350.090 C 398.454 351.379, 400.788 352, 404.038 352 C 408.051 352, 409.201 351.560, 410.927 349.365 C 412.922 346.829, 413 345.575, 413 315.979 L 413 285.228 410.207 279.882 C 405.975 271.780, 400.116 267.864, 388.716 265.518 C 383.504 264.445, 382.461 256.580, 387.223 254.255 C 388.475 253.644, 391.248 252.855, 393.384 252.501 C 398.704 251.622, 410.327 240.324, 411.905 234.500 C 412.501 232.300, 412.991 222.267, 412.994 212.205 C 413 194.110, 412.973 193.882, 410.545 191.455 L 408.091 189 383.680 189 C 360.499 189, 359.137 189.104, 356.635 191.073 M 195.455 233.455 L 193 235.909 193 257.766 C 193 278.226, 193.128 279.760, 194.996 281.765 C 197.890 284.871, 201.033 285.174, 226.675 284.820 C 247.448 284.532, 250 284.313, 251.824 282.661 C 256.109 278.779, 255.403 267.555, 250.724 265.182 C 249.449 264.536, 242.031 263.936, 233.352 263.777 C 213.690 263.417, 214 263.646, 214 249.494 C 214 238.506, 212.852 233.526, 209.961 231.979 C 208.955 231.441, 205.831 231, 203.020 231 C 198.927 231, 197.420 231.489, 195.455 233.455 M 10.913 263.282 C 7.142 266.177, 7 267.909, 7 311 C 7 354.091, 7.142 355.823, 10.913 358.718 C 12.125 359.648, 29.114 359.944, 82.795 359.968 L 153.091 360 155.545 357.545 L 158 355.091 158 310.618 L 158 266.145 155.365 264.073 C 152.756 262.020, 152.059 262, 82.615 262.032 C 29.075 262.056, 12.125 262.352, 10.913 263.282 M 30.923 285.923 C 26.861 289.985, 26.887 295.040, 30.989 299.143 L 33.978 302.132 50.887 301.816 C 71.109 301.438, 72 301.042, 72 292.418 C 72 287.913, 71.616 286.843, 69.365 285.073 C 66.942 283.167, 65.408 283, 50.288 283 L 33.846 283 30.923 285.923 M 95.923 285.923 C 91.861 289.985, 91.887 295.040, 95.989 299.143 L 98.978 302.132 116.080 301.816 C 132.664 301.510, 133.239 301.429, 135.090 299.139 C 137.960 295.592, 137.681 288.590, 134.545 285.455 C 132.136 283.045, 131.784 283, 115.469 283 L 98.846 283 95.923 285.923 M 30.667 322.816 C 26.708 327.191, 27.806 335.679, 32.615 337.870 C 34.124 338.558, 41.286 339, 50.912 339 C 65.401 339, 66.952 338.826, 69.365 336.927 C 72.988 334.078, 73.166 326.444, 69.686 323.174 C 67.491 321.113, 66.463 321, 49.841 321 C 34.173 321, 32.135 321.193, 30.667 322.816 M 96.048 322.760 C 94.700 323.852, 93.660 326.112, 93.312 328.712 C 92.814 332.425, 93.097 333.251, 95.798 335.952 L 98.846 339 115.469 339 C 131.784 339, 132.136 338.955, 134.545 336.545 C 137.761 333.330, 137.975 326.424, 134.961 323.189 C 133.015 321.100, 132.133 321, 115.572 321 C 100.499 321, 97.936 321.231, 96.048 322.760 M 220.997 434.750 C 220.996 435.163, 219.202 445.400, 217.011 457.500 C 214.820 469.600, 213.021 480.063, 213.014 480.750 C 212.992 482.704, 217.788 482.258, 218.386 480.250 C 218.673 479.288, 220.510 469.275, 222.468 458 C 224.427 446.725, 226.206 436.712, 226.421 435.750 C 226.724 434.395, 226.157 434, 223.906 434 C 222.308 434, 220.999 434.337, 220.997 434.750 M 237.505 436.250 C 236.226 441.651, 230.008 477.713, 230.004 479.750 C 230.001 481.484, 230.573 482, 232.500 482 C 233.875 482, 235.001 481.663, 235.003 481.250 C 235.004 480.837, 236.798 470.600, 238.989 458.500 C 241.180 446.400, 242.979 435.938, 242.986 435.250 C 242.994 434.563, 241.884 434, 240.519 434 C 238.771 434, 237.881 434.664, 237.505 436.250 M 105 458 L 105 477 107.500 477 L 110 477 110 466.500 L 110 456 113.465 456 L 116.930 456 117.215 466.250 C 117.487 476.018, 117.606 476.515, 119.750 476.820 C 121.971 477.135, 122 476.990, 122 465.725 C 122 452.478, 121.214 451, 114.171 451 L 110 451 110 445 C 110 439.267, 109.889 439, 107.500 439 L 105 439 105 458 M 258 445 L 258 451 253.655 451 C 247.056 451, 246 452.764, 246 463.790 C 246 475.488, 247.224 477, 256.689 477 L 263 477 263 458 L 263 439 260.500 439 C 258.111 439, 258 439.267, 258 445 M 363.120 440.355 C 362.249 441.405, 362.305 442.008, 363.355 442.880 C 364.405 443.751, 365.008 443.695, 365.880 442.645 C 366.751 441.595, 366.695 440.992, 365.645 440.120 C 364.595 439.249, 363.992 439.305, 363.120 440.355 M 203 446.500 C 203 448.500, 203.500 449, 205.500 449 C 207.500 449, 208 448.500, 208 446.500 C 208 444.500, 207.500 444, 205.500 444 C 203.500 444, 203 444.500, 203 446.500 M 129 448 C 129 450.333, 128.556 451, 127 451 C 125.533 451, 125 451.667, 125 453.500 C 125 455.333, 125.533 456, 127 456 C 128.840 456, 129 456.667, 129 464.326 C 129 471.735, 129.255 472.891, 131.314 474.826 C 132.691 476.119, 134.920 477, 136.814 477 C 139.546 477, 140 476.643, 140 474.500 C 140 472.389, 139.533 472, 137 472 L 134 472 134 464 L 134 456 137 456 C 139.533 456, 140 455.611, 140 453.500 C 140 451.389, 139.533 451, 137 451 C 134.333 451, 134 450.667, 134 448 C 134 445.467, 133.611 445, 131.500 445 C 129.389 445, 129 445.467, 129 448 M 147 448 C 147 450.333, 146.556 451, 145 451 C 143.533 451, 143 451.667, 143 453.500 C 143 455.333, 143.533 456, 145 456 C 146.840 456, 147 456.667, 147 464.326 C 147 471.735, 147.255 472.891, 149.314 474.826 C 150.691 476.119, 152.920 477, 154.814 477 C 157.546 477, 158 476.643, 158 474.500 C 158 472.389, 157.533 472, 155 472 L 152 472 152 464 L 152 456 155 456 C 157.533 456, 158 455.611, 158 453.500 C 158 451.389, 157.533 451, 155 451 C 152.333 451, 152 450.667, 152 448 C 152 445.467, 151.611 445, 149.500 445 C 147.389 445, 147 445.467, 147 448 M 310 448 C 310 450.333, 309.556 451, 308 451 C 306.533 451, 306 451.667, 306 453.500 C 306 455.333, 306.533 456, 308 456 C 309.849 456, 310 456.667, 310 464.845 C 310 475.047, 311.178 477, 317.329 477 C 320.578 477, 321 476.713, 321 474.500 C 321 472.389, 320.533 472, 318 472 L 315 472 315 464 L 315 456 318 456 C 320.533 456, 321 455.611, 321 453.500 C 321 451.389, 320.533 451, 318 451 C 315.333 451, 315 450.667, 315 448 C 315 445.467, 314.611 445, 312.500 445 C 310.389 445, 310 445.467, 310 448 M 362 462 L 362 477 364.500 477 L 367 477 367 462 L 367 447 364.500 447 L 362 447 362 462 M 161 466.500 L 161 482 163.500 482 C 165.864 482, 166 481.700, 166 476.500 L 166 471 170.345 471 C 176.495 471, 178 469, 178 460.826 C 178 452.239, 176.697 451, 167.671 451 L 161 451 161 466.500 M 182.655 452.829 C 180.373 455.350, 180.434 462.850, 182.750 464.608 C 183.713 465.339, 186.412 465.951, 188.750 465.968 C 192.798 465.998, 193 466.142, 193 469 C 193 471.762, 192.722 472, 189.500 472 C 187.056 472, 186 471.548, 186 470.500 C 186 469.567, 185.056 469, 183.500 469 C 181.544 469, 181 469.510, 181 471.345 C 181 475.047, 183.996 477, 189.674 477 C 195.862 477, 198 475.030, 198 469.326 C 198 464.156, 195.697 462, 190.171 462 C 186.203 462, 186 461.854, 186 459 C 186 456.238, 186.278 456, 189.500 456 C 191.944 456, 193 456.452, 193 457.500 C 193 458.433, 193.944 459, 195.500 459 C 197.456 459, 198 458.490, 198 456.655 C 198 452.953, 195.004 451, 189.326 451 C 185.737 451, 183.839 451.520, 182.655 452.829 M 267.655 452.829 C 266.359 454.261, 266 456.722, 266 464.174 C 266 476.115, 266.713 477, 276.329 477 C 282.778 477, 283 476.917, 283 474.500 C 283 472.111, 282.733 472, 277 472 C 271.267 472, 271 471.889, 271 469.500 C 271 467.111, 271.267 467, 277 467 L 283 467 283 460.655 C 283 452.690, 281.482 451, 274.326 451 C 270.737 451, 268.839 451.520, 267.655 452.829 M 286.063 452.250 C 286.098 452.938, 287.124 458.675, 288.344 465 L 290.562 476.500 294.196 476.805 C 298.394 477.158, 298.153 477.633, 300.456 464.500 C 301.325 459.550, 302.261 454.488, 302.537 453.250 C 302.950 451.394, 302.610 451, 300.599 451 C 297.908 451, 297.945 450.897, 295.904 464.275 C 295.251 468.552, 294.575 471.908, 294.401 471.734 C 294.227 471.560, 293.321 466.824, 292.389 461.209 C 290.801 451.646, 290.545 451, 288.347 451 C 287.056 451, 286.028 451.563, 286.063 452.250 M 325.655 452.829 C 323.128 455.621, 323.263 473.023, 325.829 475.345 C 328.684 477.929, 336.133 477.551, 338.826 474.686 C 340.727 472.662, 341 471.236, 341 463.341 C 341 455.862, 340.686 454.026, 339.171 452.655 C 336.557 450.289, 327.852 450.401, 325.655 452.829 M 371.655 452.829 C 370.359 454.261, 370 456.722, 370 464.174 C 370 476.115, 370.713 477, 380.329 477 C 386.778 477, 387 476.917, 387 474.500 C 387 472.111, 386.733 472, 381 472 L 375 472 375 464 L 375 456 381 456 C 386.733 456, 387 455.889, 387 453.500 C 387 451.077, 386.790 451, 380.155 451 C 374.794 451, 372.951 451.396, 371.655 452.829 M 390 462.345 C 390 475.649, 390.752 477, 398.154 477 C 401.562 477, 403.178 476.439, 404.826 474.686 C 406.778 472.607, 407 471.280, 407 461.686 L 407 451 404.500 451 L 402 451 402 461.500 L 402 472 398.500 472 L 395 472 395 461.500 L 395 451 392.500 451 L 390 451 390 462.345 M 166 461.500 L 166 467 169.500 467 L 173 467 173 461.500 L 173 456 169.500 456 L 166 456 166 461.500 M 251 464 L 251 472 254.500 472 L 258 472 258 464 L 258 456 254.500 456 L 251 456 251 464 M 271 459.500 C 271 462.833, 271.167 463, 274.500 463 C 277.833 463, 278 462.833, 278 459.500 C 278 456.167, 277.833 456, 274.500 456 C 271.167 456, 271 456.167, 271 459.500 M 329 464 L 329 472 332.500 472 L 336 472 336 464 L 336 456 332.500 456 L 329 456 329 464 M 203.184 465.750 C 203.411 467.728, 204.062 468.500, 205.500 468.500 C 206.938 468.500, 207.589 467.728, 207.816 465.750 C 208.091 463.366, 207.782 463, 205.500 463 C 203.218 463, 202.909 463.366, 203.184 465.750 M 349 478.500 C 349 481.567, 349.310 482, 351.500 482 C 353.690 482, 354 481.567, 354 478.500 C 354 475.433, 353.690 475, 351.500 475 C 349.310 475, 349 475.433, 349 478.500" stroke="none" fill="black" fill-rule="evenodd"/>
</svg>