<svg xmlns="http://www.w3.org/2000/svg" width="512" height="512" viewBox="0 0 512 512" version="1.1">
	<path d="M 0 256.002 L 0 512.004 256.250 511.752 L 512.500 511.500 512.752 255.750 L 513.004 0 256.502 0 L 0 0 0 256.002 M 0.492 256.500 C 0.492 397.300, 0.608 454.751, 0.750 384.170 C 0.892 313.588, 0.892 198.388, 0.750 128.170 C 0.608 57.951, 0.492 115.700, 0.492 256.500 M 46.750 29.563 C 46.337 29.986, 46 66.250, 46 110.148 L 46 189.962 48.684 190.636 C 52.730 191.651, 109.917 190.279, 115.572 189.031 C 118.283 188.432, 122.750 187.468, 125.500 186.887 C 139.595 183.908, 154.198 176.553, 163.744 167.623 C 174.036 157.995, 179.880 147.869, 183.594 133.226 C 187.677 117.131, 186.632 91.127, 181.386 78.300 C 172.336 56.173, 158.313 43.078, 135.584 35.531 C 120.184 30.418, 114.707 29.802, 80 29.280 C 62.125 29.012, 47.163 29.139, 46.750 29.563 M 200.464 30.240 C 200.200 30.933, 200.099 67.275, 200.242 111 L 200.500 190.500 247.935 190.760 C 285.220 190.964, 295.541 190.750, 296.170 189.760 C 297.097 188.300, 297.299 151.942, 296.393 149.582 C 295.865 148.206, 292.934 148, 273.893 148 L 252 148 252 139 L 252 130 273 130 L 294 130 294 109.500 L 294 89 272.961 89 L 251.922 89 252.211 80.250 L 252.500 71.500 273.500 71 L 294.500 70.500 294.500 50 L 294.500 29.500 247.722 29.240 C 210.834 29.035, 200.843 29.247, 200.464 30.240 M 298.996 30.250 C 298.992 31.262, 304.061 44.897, 308.010 54.500 C 308.463 55.600, 310.496 60.775, 312.528 66 C 316.859 77.131, 317.683 79.227, 318.922 82.250 C 319.430 83.487, 323.740 94.625, 328.500 107 C 333.260 119.375, 337.522 130.400, 337.969 131.500 C 338.417 132.600, 340.891 138.900, 343.466 145.500 C 346.042 152.100, 348.531 158.400, 348.998 159.500 C 349.465 160.600, 352.173 167.575, 355.018 175 C 357.862 182.425, 360.907 189.063, 361.785 189.750 C 362.936 190.651, 368.731 191, 382.536 191 C 399.555 191, 401.853 190.805, 403.150 189.250 C 403.952 188.287, 406.760 181.875, 409.389 175 C 412.018 168.125, 414.545 161.600, 415.004 160.500 C 415.463 159.400, 420.192 147.250, 425.511 133.500 C 430.831 119.750, 435.753 107.150, 436.448 105.500 C 437.143 103.850, 439.169 98.675, 440.951 94 C 442.733 89.325, 444.564 84.600, 445.020 83.500 C 450.721 69.755, 465 32.021, 465 30.702 C 465 29.092, 463.016 28.987, 437.273 29.234 L 409.545 29.500 406.161 38 C 404.300 42.675, 402.378 47.513, 401.889 48.750 C 401.400 49.987, 400.550 52.125, 400 53.500 C 398.462 57.346, 397.586 59.573, 392.529 72.500 C 389.947 79.100, 387.422 85.281, 386.917 86.236 C 386.413 87.191, 386 88.374, 386 88.864 C 386 89.355, 385.325 91.372, 384.500 93.346 C 383.462 95.830, 382.537 96.760, 381.500 96.362 C 380.675 96.045, 380 95.282, 380 94.667 C 380 93.143, 355.936 31.819, 354.722 30.250 C 353.319 28.436, 299.002 28.436, 298.996 30.250 M 70.459 50.250 C 70.196 50.938, 70.098 78.275, 70.241 111 L 70.500 170.500 90 170.479 C 106.851 170.461, 110.629 170.160, 117.813 168.262 C 147.114 160.517, 162.082 140.427, 161.964 109 C 161.918 96.650, 159.275 85.558, 154.394 77.229 C 146.318 63.449, 132.632 54.453, 113.746 50.513 C 104.337 48.550, 71.186 48.349, 70.459 50.250 M 224.244 109.750 L 224.500 170.500 251.500 170.500 L 278.500 170.500 278.820 168.250 L 279.139 166 255.089 166 L 231.038 166 230.487 163.750 C 230.184 162.512, 230.063 150.700, 230.218 137.500 L 230.500 113.500 252.788 113 C 271.130 112.589, 275.244 112.234, 276.022 111 C 276.542 110.175, 276.825 109.050, 276.652 108.500 C 276.460 107.892, 267.164 107.286, 252.918 106.953 C 240.038 106.653, 229.379 106.315, 229.231 106.203 C 229.083 106.092, 229.256 104.827, 229.616 103.393 C 230.049 101.669, 229.804 100.497, 228.894 99.934 C 227.797 99.257, 227.770 98.830, 228.758 97.842 C 229.664 96.936, 230.004 91.167, 230.015 76.550 C 230.024 65.523, 230.383 55.946, 230.813 55.269 C 231.387 54.364, 237.816 53.967, 255.047 53.769 L 278.500 53.500 278.820 51.250 L 279.139 49 251.563 49 L 223.988 49 224.244 109.750 M 333 51.014 C 333 52.121, 333.397 53.809, 333.883 54.764 C 335.280 57.508, 335.996 59.318, 352 100.500 C 360.336 121.950, 367.533 140.400, 367.993 141.500 C 368.454 142.600, 370.978 149.125, 373.602 156 C 376.227 162.875, 378.927 169.121, 379.602 169.880 C 381.034 171.487, 386 170.630, 386 168.776 C 386 167.835, 412.945 98.101, 417.212 88 C 419.810 81.849, 432 50.018, 432 49.385 C 432 49.103, 430.562 49.014, 428.803 49.187 C 425.701 49.491, 425.463 49.868, 420.710 62 C 418.016 68.875, 415.344 75.625, 414.772 77 C 414.200 78.375, 413.388 80.400, 412.967 81.500 C 412.293 83.259, 404.280 103.693, 401.888 109.750 C 401.400 110.987, 400.583 113.013, 400.072 114.250 C 399.327 116.058, 393.681 130.566, 383.929 155.731 C 383.046 158.008, 379.985 157.939, 380.015 155.643 C 380.023 155.014, 378.399 150.450, 376.405 145.500 C 374.412 140.550, 372.380 135.488, 371.890 134.250 C 371.401 133.012, 370.588 130.988, 370.083 129.750 C 369.579 128.512, 364.355 115.125, 358.473 100 C 337.315 45.589, 338.850 49.033, 335.750 49.015 C 333.655 49.004, 333 49.480, 333 51.014 M 76.663 55.437 C 75.527 58.396, 75.882 161.911, 77.035 164.066 C 78.263 166.360, 83.732 166.582, 100.144 165.004 C 126.306 162.488, 143.181 152.410, 151.062 134.594 C 153.558 128.950, 156 116.616, 155.999 109.662 C 155.998 104.588, 153.969 92.426, 152.469 88.500 C 147.631 75.836, 140.163 67.561, 128.603 62.056 C 117.071 56.564, 109.743 54.995, 92.413 54.309 C 78.716 53.766, 77.264 53.870, 76.663 55.437 M 98 109.441 C 98 128.384, 98.388 144.122, 98.863 144.415 C 99.908 145.061, 111.610 143.232, 114.750 141.932 C 123.943 138.125, 129.015 133.684, 132.042 126.794 C 135.272 119.442, 135.969 104.490, 133.455 96.498 C 131.552 90.446, 125.186 82.381, 120.614 80.230 C 113.748 76.999, 106.272 75, 101.057 75 L 98 75 98 109.441 M 465.170 173.170 C 465.390 174.723, 466.277 175.610, 467.830 175.830 C 469.769 176.105, 470.105 175.769, 469.830 173.830 C 469.610 172.277, 468.723 171.390, 467.170 171.170 C 465.231 170.895, 464.895 171.231, 465.170 173.170 M 182 224.594 C 182 225.470, 181.100 226.423, 180 226.710 C 177.983 227.238, 177.143 230, 179 230 C 179.550 230, 180 230.675, 180 231.500 C 180 232.325, 179.532 233, 178.961 233 C 178.360 233, 178.466 233.592, 179.211 234.401 C 179.920 235.172, 180.650 235.397, 180.833 234.901 C 181.017 234.406, 182.479 234, 184.083 234 C 186.333 234, 187 233.543, 187 232 C 187 230.900, 187.450 230, 188 230 C 188.550 230, 189 229.325, 189 228.500 C 189 226.369, 186.633 226.643, 184.479 229.024 C 183.256 230.375, 182.315 230.715, 181.645 230.045 C 180.976 229.376, 181.367 228.416, 182.822 227.155 C 185.344 224.967, 185.665 223, 183.500 223 C 182.675 223, 182 223.717, 182 224.594 M 252.676 226.452 C 250.572 227.202, 248.743 227.970, 248.611 228.158 C 248.478 228.346, 245.249 232.107, 241.435 236.514 C 237.621 240.922, 233.203 246.091, 231.617 247.999 C 229.231 250.871, 227.889 251.558, 223.838 251.985 C 218.572 252.539, 216.710 254.435, 221.268 254.601 C 222.790 254.657, 224.254 254.921, 224.521 255.188 C 224.788 255.454, 221.889 259.663, 218.080 264.541 C 207.694 277.837, 205.094 283.694, 208.200 286.800 C 209.647 288.247, 220.627 288.413, 221.500 287 C 221.840 286.450, 221.261 286, 220.214 286 C 217.279 286, 214.687 282.573, 215.539 279.822 C 217.030 275.014, 221.007 268.264, 226.484 261.250 L 232.144 254 238.322 253.926 C 241.720 253.885, 246.525 253.491, 249 253.051 C 252.959 252.347, 252.456 252.235, 244.809 252.125 C 240.029 252.056, 235.882 251.618, 235.594 251.151 C 235.305 250.685, 235.841 249.440, 236.785 248.386 C 237.728 247.331, 240.599 244, 243.164 240.984 C 245.730 237.968, 250.107 233.137, 252.892 230.250 C 258.380 224.560, 258.372 224.420, 252.676 226.452 M 282.035 244.734 C 279.290 245.813, 277.340 249.291, 276.092 255.332 C 274.878 261.209, 270.752 268.607, 266.652 272.256 C 265.567 273.222, 264.922 274.255, 265.219 274.552 C 265.516 274.849, 268.005 272.571, 270.752 269.489 L 275.745 263.887 279.512 266.444 C 283.509 269.156, 284.069 269.259, 288 268 C 290.376 267.239, 290.340 267.194, 287.273 267.100 C 280.732 266.898, 279.337 259.416, 284.029 249.703 C 285.113 247.460, 286 245.259, 286 244.812 C 286 243.901, 284.241 243.867, 282.035 244.734 M 264.500 254.314 C 255.166 259.301, 239 278.791, 239 285.057 C 239 287.683, 242.389 289.205, 246.514 288.431 C 249.954 287.786, 251.413 286, 248.500 286 C 246 286, 246.762 280.948, 250.154 275.033 C 251.878 272.026, 257.233 265.614, 262.055 260.783 C 271.038 251.782, 271.494 250.577, 264.500 254.314 M 61.143 253.890 C 59.351 255.026, 60.526 258.676, 63.132 260.070 C 64.584 260.848, 65.519 260.814, 66.564 259.947 C 68.597 258.259, 68.344 255.254, 66.066 254.035 C 63.737 252.789, 62.920 252.765, 61.143 253.890 M 225.813 284.683 C 226.534 284.972, 227.397 284.936, 227.729 284.604 C 228.061 284.272, 227.471 284.036, 226.417 284.079 C 225.252 284.127, 225.015 284.364, 225.813 284.683 M 222.139 308.275 C 193.893 310.612, 168.313 325.185, 153.723 347.250 C 151.814 350.138, 147.952 357.004, 145.142 362.510 C 140.137 372.313, 140.008 372.787, 138.902 385.510 C 137.733 398.947, 138.258 415.373, 140.082 422.443 C 141.762 428.951, 143.071 433.354, 143.966 435.500 C 149.682 449.201, 153.657 455.479, 162.674 465.038 C 175.160 478.276, 190.446 486.688, 211 491.632 C 220.047 493.808, 248.059 493.815, 257 491.643 C 271.964 488.008, 288.829 480.993, 295.450 475.650 L 298.400 473.269 292.034 461.885 C 282.709 445.211, 282.760 445.300, 277.030 435.234 C 274.129 430.137, 271.398 425.746, 270.961 425.476 C 270.523 425.205, 267.541 426.722, 264.333 428.847 C 255.167 434.917, 247.222 437.296, 235.936 437.348 C 230.399 437.374, 224.914 436.844, 222.931 436.093 C 210.573 431.414, 203.803 425.565, 198.932 415.358 C 196.016 409.248, 195.836 408.226, 196.168 399.661 C 196.600 388.481, 199.376 381.782, 206.433 374.889 C 215.215 366.310, 226.818 362.623, 240.056 364.204 C 246.992 365.033, 258.983 369.428, 263.942 372.959 C 267.810 375.713, 268.310 375.586, 270.671 371.250 C 276.785 360.019, 279.362 355.398, 280.010 354.500 C 280.407 353.950, 281.854 351.475, 283.224 349 C 284.594 346.525, 286.895 342.475, 288.338 340 C 294.404 329.592, 295.378 327.160, 294.097 325.617 C 292.329 323.487, 277.670 316.525, 268.978 313.688 C 253.780 308.727, 238.298 306.937, 222.139 308.275 M 63.494 314.250 C 63.195 315.488, 63.074 355.200, 63.225 402.500 L 63.500 488.500 93.500 488.500 L 123.500 488.500 123.759 433.750 C 123.960 390.995, 124.289 378.987, 125.259 378.941 C 125.941 378.909, 128.146 378.755, 130.157 378.601 C 133.121 378.373, 133.701 378.615, 133.217 379.877 C 132.690 381.251, 132.806 381.261, 134.199 379.967 C 135.325 378.921, 135.452 378.285, 134.639 377.750 C 133.377 376.919, 135.512 375.043, 137.750 375.015 C 138.438 375.007, 139 373.923, 139 372.607 C 139 369.592, 136.009 368.268, 134.343 370.546 C 133.010 372.369, 131 371.705, 131 369.441 C 131 368.648, 130.550 368, 130 368 C 128.410 368, 128.842 372.002, 130.500 372.638 C 132.635 373.458, 132.355 375.297, 129.858 376.857 C 127.881 378.092, 127.760 378.025, 128.293 375.987 C 128.713 374.382, 128.367 373.647, 127.028 373.297 C 126.014 373.032, 124.924 371.844, 124.606 370.658 C 124.288 369.471, 124.015 356.800, 124 342.500 C 123.985 328.200, 123.701 315.488, 123.370 314.250 L 122.767 312 93.402 312 L 64.038 312 63.494 314.250 M 302.286 377.250 C 302.623 433.287, 302.903 443.234, 304.269 447.697 C 309.727 465.530, 319.337 477.409, 334.419 484.971 C 346.987 491.272, 356.571 493.237, 375 493.295 C 393.984 493.354, 402.965 491.513, 416.941 484.696 C 429.060 478.784, 441.010 464.386, 444.906 451 C 445.466 449.075, 446.471 445.925, 447.138 444 C 448.020 441.456, 448.465 423.613, 448.767 378.679 C 448.995 344.677, 448.907 315.765, 448.571 314.429 L 447.962 312 420.012 312 L 392.061 312 391.781 370.750 C 391.508 427.908, 391.444 429.608, 389.431 433.500 C 386.812 438.565, 382.181 440.996, 375.151 440.998 C 367.941 441.001, 363.415 438.687, 360.700 433.612 C 358.515 429.528, 358.498 429.098, 358.212 370.750 L 357.924 312 329.909 312 L 301.894 312 302.286 377.250 M 90 400.031 C 90 461.168, 90.144 467.118, 91.636 467.691 C 92.536 468.036, 93.998 467.860, 94.886 467.300 C 96.339 466.384, 96.529 459.947, 96.785 402.891 C 96.942 368.026, 96.810 338.038, 96.490 336.250 C 95.989 333.448, 95.502 333, 92.955 333 L 90 333 90 400.031 M 217.500 334.491 C 190.344 341.389, 171.734 359.930, 166.301 385.500 C 158.524 422.108, 178.579 456.259, 213.500 465.873 C 230.933 470.673, 247.405 469.631, 263.250 462.728 C 268.275 460.538, 268.612 460.013, 266.965 456.934 C 265.668 454.511, 264.159 454.507, 258.777 456.909 C 250.341 460.674, 245.686 461.502, 233.500 461.402 C 219.599 461.288, 213.453 459.811, 201.732 453.765 C 180.882 443.011, 168.390 417.315, 171.983 392.575 C 173.374 382.995, 174.053 380.842, 178.785 371.022 C 191.203 345.247, 224.650 332.951, 254.847 343.058 C 262.205 345.522, 262.824 345.480, 264.215 342.428 C 265.816 338.913, 264.991 338.478, 248.384 334.088 C 242.925 332.645, 223.785 332.895, 217.500 334.491 M 328.703 334.692 C 328.446 335.686, 328.307 358.100, 328.395 384.500 C 328.565 435.765, 328.728 437.667, 333.825 447.657 C 337.746 455.342, 347.182 463.597, 350.148 461.937 C 351.262 461.314, 352.261 461.631, 353.501 463.001 C 354.472 464.075, 355.686 464.694, 356.197 464.378 C 356.708 464.063, 357.981 464.578, 359.027 465.524 C 361.762 467.999, 375.511 469.209, 384.951 467.805 C 404.440 464.907, 416.191 454.519, 420.530 436.356 C 421.626 431.766, 421.936 419.949, 421.964 381.687 L 422 332.873 418.750 333.187 L 415.500 333.500 414.990 384.500 L 414.479 435.500 411.400 442 C 407.581 450.063, 401.331 455.969, 393.419 458.990 C 388.580 460.838, 385.401 461.264, 376 461.328 C 369.115 461.374, 362.494 460.855, 359.500 460.035 C 348.082 456.905, 339.551 447.835, 336.424 435.500 C 336.006 433.850, 335.402 410.225, 335.082 383 L 334.500 333.500 331.836 333.192 C 329.942 332.973, 329.036 333.406, 328.703 334.692 M 124 376.417 C 124 377.288, 124.713 378, 125.583 378 C 127.349 378, 127.042 375.847, 125.188 375.229 C 124.534 375.011, 124 375.546, 124 376.417" stroke="none" fill="black" fill-rule="evenodd"/>
</svg>